<svg width="238" height="92" viewBox="0 0 238 92" fill="none" xmlns="http://www.w3.org/2000/svg">
<path d="M126.293 133.163C126.53 135.833 121.568 137.295 118.996 133.163C116.216 129.513 118.26 121.037 126.293 118.59C133.859 115.693 145.831 121.254 148.184 133.163C151.182 144.614 142.129 160.062 126.293 162.311C110.949 165.406 91.935 152.872 89.808 133.163C86.584 113.935 102.679 91.469 126.293 89.442C149.449 86.125 175.445 105.672 177.372 133.163C180.801 160.173 157.719 189.654 126.293 191.458C95.331 194.997 62.3299 168.432 60.6203 133.163C56.9787 98.353 87.061 61.8955 126.293 60.2948C165.03 56.5565 205.078 90.094 206.56 133.163C210.424 175.751 173.314 219.227 126.293 220.605C79.745 224.566 32.711 184.014 31.4323 133.163C27.3691 82.794 71.462 32.3086 126.293 31.1474C180.634 26.965 234.692 74.5353 235.748 133.163C240.038 191.333 188.913 248.795 126.293 249.753C64.1645 254.139 3.07818 199.591 2.24428 133.163C-2.24972 67.2161 55.8714 2.7356 126.293 2" stroke="#4F4F4F" stroke-width="3" stroke-linecap="round"/>
</svg>
