<svg width="82" height="132" viewBox="0 0 82 132" fill="none" xmlns="http://www.w3.org/2000/svg">
<path d="M-173 87.1779C-160.343 82.9175 -143.116 134.096 -130.459 129.836C-117.802 125.575 -135.029 74.3967 -122.372 70.1363C-109.716 65.8759 -92.4885 117.054 -79.8613 112.804C-67.204 108.543 -84.431 57.365 -71.8042 53.1147C-59.147 48.8542 -41.92 100.033 -29.2931 95.7824C-16.6359 91.5219 -33.8629 40.3434 -21.2067 36.0833C-8.54952 31.8228 8.67747 83.0012 21.3346 78.7407C33.9909 74.4805 16.7639 23.3021 29.4211 19.0416C42.0782 14.7811 59.3052 65.9596 71.9624 61.6991C84.6186 57.4389 67.3917 6.26047 80.0488 1.99997" stroke="#9657D6" stroke-width="3" stroke-miterlimit="10" stroke-linecap="round"/>
</svg>
