<svg width="137" height="164" viewBox="0 0 137 164" fill="none" xmlns="http://www.w3.org/2000/svg">
<path d="M2 160.876C12.7331 152.929 23.4438 167.396 34.177 159.449C44.9101 151.503 34.1993 137.036 44.9325 129.089C55.6656 121.143 66.3763 135.609 77.0843 127.681C87.8177 119.735 77.107 105.268 87.8146 97.3404C98.548 89.3936 109.259 103.86 119.966 95.9324C130.7 87.9857 119.989 73.5191 130.721 65.573C141.455 57.6262 152.166 72.0927 162.899 64.1459C173.631 56.1998 162.921 41.7333 173.654 33.7865C184.387 25.8397 195.098 40.3062 205.832 32.3595C216.564 24.4133 205.853 9.94678 216.587 2.00001" stroke="#9657D6" stroke-width="3" stroke-miterlimit="10" stroke-linecap="round"/>
</svg>
