<svg width="153" height="77" viewBox="0 0 153 77" fill="none" xmlns="http://www.w3.org/2000/svg">
<path d="M7.736 3.6V14.704L13.912 3.6H17.848L11.832 14.416H18.168L12.664 26H8.728L13.304 16.912H7.768V26H3.8V3.6H7.736ZM23.2673 16.24L23.2352 23.12H36.7393V26H19.3313V3.6H36.6433V6.48H23.2673V13.36H36.6433V16.24H23.2673ZM57.023 2.384C56.287 3.6 51.903 9.648 51.903 11.408C51.903 16.336 56.863 19.056 56.863 23.92C56.863 25.264 56.511 26.544 55.903 27.76L50.975 32.688C50.399 33.328 48.191 33.776 45.823 33.776C42.303 33.776 40.031 33.328 39.967 32.016C39.647 30.64 45.151 22.128 46.111 22.128C48.447 22.16 49.567 22.288 51.455 22.416L50.175 29.68C45.279 24.208 44.287 24.24 42.207 27.856C40.895 30.192 44.447 30.384 45.983 30.448C55.167 30.896 55.359 28.624 53.279 25.136C49.855 19.344 51.039 14.672 51.935 8.304C49.375 16.304 47.167 21.712 42.751 21.712C34.943 21.712 43.519 7.344 44.863 5.072C43.455 6.576 41.375 8.624 39.903 8.624C38.367 8.624 37.663 6.768 37.663 5.392C37.663 3.28 38.175 1.36 38.687 0.495998L38.751 0.591999C37.727 2.8 39.295 3.76 40.703 3.76C44.991 3.76 46.591 2.192 48.479 2.192L46.303 6.256C42.527 6.256 38.751 17.648 45.119 18.224C48.671 18.544 49.887 15.408 50.335 4.976L57.023 2.384ZM13.224 46.164C12.036 44.4 11.424 41.376 12.612 38.748L9.66 40.728C8.436 41.736 8.4 42.888 8.4 43.716C8.4 51.096 26.04 53.436 26.04 60.888C26.04 66.432 16.104 69.636 11.64 69.636C6.168 69.636 0.768 64.236 4.872 59.232L12.504 55.2L12.756 55.488C9.876 56.856 8.616 58.692 8.616 61.176C8.616 68.016 22.224 70.464 22.224 63.732C22.224 54.48 4.872 56.064 4.872 46.128C4.872 42.888 10.416 39.972 12.756 38.424C16.104 45.84 21.36 46.308 22.368 39.792H22.62L21.216 49.152C18.264 49.152 14.952 48.684 13.224 46.164ZM26.4619 44.076V40.836H43.0219V44.076H36.9739L37.0099 66H32.5459V44.076H26.4619ZM49.8669 54.156L49.8309 66H45.4389V40.8H52.7109C57.1749 40.8 61.2789 42.168 61.2789 47.244C61.2789 51.024 58.9749 53.256 55.3389 53.94L61.2429 66H56.7429L50.9469 54.156H49.8669ZM49.8669 50.736H52.7109C55.1229 50.736 56.8509 50.196 56.8509 47.46C56.8509 44.76 55.1229 44.184 52.7109 44.22H49.8669V50.736ZM62.5673 53.544C62.5673 45.912 67.4273 40.8 74.8073 40.8C82.1153 40.8 86.9753 45.912 86.9753 53.544C86.9753 61.176 82.1153 66.288 74.8073 66.288C67.4273 66.288 62.5673 61.176 62.5673 53.544ZM66.2393 53.544C66.2393 58.872 69.6233 62.472 74.8073 62.472C79.9193 62.472 83.3033 58.872 83.3033 53.544C83.3033 48.216 79.9193 44.616 74.8073 44.616C69.6233 44.616 66.2393 48.216 66.2393 53.544ZM92.1228 53.544C92.1228 58.872 95.5068 62.472 100.691 62.472C104.507 62.472 107.639 60.636 108.539 57.252H112.751C111.419 62.796 106.739 66.288 100.691 66.288C93.3108 66.288 88.4508 61.176 88.4508 53.544C88.4508 45.912 93.3108 40.8 100.691 40.8C107.567 40.8 111.779 45.444 111.779 52.176H108.071C107.819 47.1 105.335 44.616 100.691 44.616C95.5068 44.616 92.1228 48.216 92.1228 53.544ZM118.332 40.8V53.292L125.28 40.8H129.708L122.94 52.968H130.068L123.876 66H119.448L124.596 55.776H118.368V66H113.904V40.8H118.332ZM131.161 57.504L150.457 45.48V45.444H131.161V40.8H151.789L151.825 49.368L132.529 61.068V61.104H151.825V65.748H131.197L131.161 57.504Z" fill="#F5F5F5"/>
</svg>
