<svg width="138" height="224" viewBox="0 0 138 224" fill="none" xmlns="http://www.w3.org/2000/svg">
<path d="M279.598 -5.96554C251.029 -36.9127 215.513 -50.5929 200.27 -36.5215C185.027 -22.4501 195.83 14.0444 224.4 44.9916C240.411 62.3351 258.621 71.5662 265.073 65.6096C271.526 59.653 263.777 40.7643 247.766 23.4207C219.197 -7.5264 183.68 -21.2066 168.438 -7.13522C153.195 6.93626 163.998 43.4311 192.567 74.3782C208.578 91.7218 226.788 100.953 233.241 94.9958C239.693 89.0392 231.945 70.1506 215.934 52.807C187.364 21.8599 151.772 8.24973 136.436 22.4073C121.1 36.565 131.827 73.1298 160.396 104.077C176.407 121.421 194.618 130.651 201.07 124.695C207.523 118.738 199.773 99.8499 183.762 82.5063C155.193 51.5592 119.677 37.8785 104.435 51.95C89.192 66.0215 99.9956 102.515 128.565 133.463C144.576 150.806 162.785 160.038 169.238 154.081C175.69 148.124 167.942 129.236 151.931 111.892C123.362 80.9448 87.8449 67.2651 72.6022 81.3365C57.3595 95.408 68.1631 131.902 96.7324 162.849C112.743 180.193 130.954 189.424 137.405 183.468C143.858 177.511 136.109 158.622 120.098 141.279C91.5292 110.331 56.0124 96.6516 40.7707 110.722C25.528 124.794 36.3307 161.289 64.8999 192.236C80.9108 209.579 99.1212 218.81 105.574 212.853C112.025 206.897 104.277 188.009 88.2659 170.665C59.6967 139.718 24.1051 126.107 8.76914 140.265C-6.56686 154.422 4.15996 190.987 32.7292 221.934" stroke="#4F4F4F" stroke-width="3" stroke-linecap="round"/>
</svg>
